<svg width="89" height="89" viewBox="0 0 89 89" fill="none" xmlns="http://www.w3.org/2000/svg">
<rect width="89" height="89" rx="44.5" fill="#757575"/>
<path fill-rule="evenodd" clip-rule="evenodd" d="M57.8505 35.6C57.8505 42.973 51.8735 48.95 44.5005 48.95C37.1275 48.95 31.1505 42.973 31.1505 35.6C31.1505 28.227 37.1275 22.25 44.5005 22.25C51.8735 22.25 57.8505 28.227 57.8505 35.6ZM53.4005 35.6C53.4005 40.5153 49.4159 44.5 44.5005 44.5C39.5852 44.5 35.6005 40.5153 35.6005 35.6C35.6005 30.6847 39.5852 26.7 44.5005 26.7C49.4159 26.7 53.4005 30.6847 53.4005 35.6Z" fill="#B1B1B1"/>
<path d="M44.5005 55.625C30.095 55.625 17.8212 64.1432 13.1458 76.0773C14.2847 77.2083 15.4845 78.2781 16.7399 79.2813C20.2214 68.3246 31.1432 60.075 44.5005 60.075C57.8579 60.075 68.7797 68.3246 72.2612 79.2814C73.5166 78.2781 74.7164 77.2083 75.8554 76.0773C71.1799 64.1432 58.9061 55.625 44.5005 55.625Z" fill="#B1B1B1"/>
</svg>
