<svg width="121" height="126" viewBox="0 0 121 126" fill="none" xmlns="http://www.w3.org/2000/svg">
<path d="M59.2836 29.3755C79.5987 30.675 95.1005 41.9601 99.0916 62.8376C99.4513 64.7355 100.53 67.8133 97.6699 68.1552C95.6144 68.4117 95.8371 65.4366 95.5116 63.5899C94.2263 55.3992 90.1412 47.9049 83.9498 42.3789C77.7583 36.853 69.842 33.636 61.5446 33.274C47.0534 32.6413 30.8321 41.1223 25.1282 57.5028C24.2032 60.1531 24.4259 62.9231 23.4152 65.4708C22.987 66.548 23.0041 68.3604 21.2398 67.9843C19.4755 67.6081 19.9209 66.0521 20.0579 64.821C20.5824 59.3604 22.2837 54.0775 25.0452 49.3347C27.8067 44.5919 31.5629 40.5013 36.0565 37.3435C42.9031 32.5775 50.9484 29.8176 59.2836 29.3755Z" fill="white"/>
<path d="M27.5608 68.3942C25.8479 64.8548 26.8928 61.9138 27.9034 59.0412C30.3495 52.0768 35.0301 46.1131 41.2188 42.0756C47.4075 38.0382 54.7582 36.1528 62.1302 36.7121C69.5021 37.2715 76.4829 40.2442 81.9893 45.1689C87.4956 50.0937 91.2195 56.6951 92.5829 63.9485C92.9255 65.761 93.2852 67.6076 91.1269 68.0693C89.671 68.3771 89.414 66.7527 89.1742 65.4703C85.4058 49.5857 75.077 40.5405 60.4316 40.113C45.7862 39.6855 34.344 48.6623 29.8048 64.4273C29.4622 65.59 29.6849 67.0092 27.5608 68.3942Z" fill="white"/>
<path d="M59.5927 47.004C48.0648 47.004 40.3053 52.903 36.7254 64.1026C36.2629 65.5389 36.5027 68.2576 34.1903 67.642C31.5866 66.941 33.0255 64.2223 33.4023 62.7518C36.1944 51.4154 47.3625 43.2765 59.9524 43.3107C65.7967 43.3058 71.48 45.2224 76.124 48.7641C80.7681 52.3059 84.1145 57.2757 85.6461 62.9057C86.0914 64.6156 87.359 67.2317 84.8753 67.8301C81.9976 68.497 82.8027 65.2311 82.4087 63.7777C79.925 54.8351 69.7674 45.9438 59.5927 47.004Z" fill="white"/>
<path d="M78.3659 68.2916C75.9335 67.5392 75.9507 65.5558 75.3511 64.1366C74.135 60.9632 71.967 58.2419 69.1434 56.3445C66.3198 54.4471 62.9783 53.4661 59.5752 53.5354C56.0644 53.3814 52.5968 54.3566 49.6828 56.3174C46.7688 58.2781 44.5624 61.1209 43.3882 64.4273C42.7716 65.9491 42.7373 68.2745 40.5962 67.847C38.712 67.4879 39.4485 65.3848 39.7397 64.0682C41.4526 56.2712 50.925 49.5856 59.9521 49.7566C68.7051 49.8934 77.458 56.5961 79.0682 64.4957C79.3152 65.1312 79.3803 65.8227 79.2563 66.493C79.1323 67.1634 78.824 67.7861 78.3659 68.2916Z" fill="white"/>
<path d="M27.6635 70.3096C28.2287 71.1132 29.1708 71.8656 29.2736 72.7034C30.524 84.0569 37.3585 90.828 47.3619 95.1197C48.6295 95.6669 51.0447 95.7353 50.1026 97.9581C49.1605 100.181 47.2934 98.5907 45.9231 97.9581C35.1318 93.3928 27.7662 86.1429 26.139 73.9003C25.9419 73.218 25.9858 72.4889 26.2634 71.8351C26.5409 71.1813 27.0353 70.6427 27.6635 70.3096Z" fill="white"/>
<path d="M59.4378 59.8451C57.3374 60.0968 55.3287 60.8497 53.5815 62.0402C51.8343 63.2307 50.4001 64.8237 49.4001 66.6846C48.9376 67.5395 48.3038 68.7193 47.0192 68.155C45.7345 67.5908 45.666 66.069 46.2826 64.9063C47.4301 62.3754 49.285 60.2289 51.6246 58.7245C53.9642 57.2201 56.6891 56.4218 59.472 56.4254C62.2446 56.4005 64.9618 57.2004 67.2773 58.723C69.5927 60.2456 71.4015 62.422 72.473 64.9747C73.004 66.0348 73.3295 67.5908 71.805 68.2405C70.5546 68.7706 69.8865 67.5053 69.424 66.6504C68.399 64.8233 66.9639 63.2581 65.2313 62.0774C63.4987 60.8967 61.5157 60.1326 59.4378 59.8451Z" fill="white"/>
<path d="M58.5986 14.1574C58.5986 10.7377 58.5986 7.31797 58.5986 4.01793C58.5986 3.00911 58.5986 1.74381 59.9518 1.57282C60.2094 1.52642 60.4738 1.53509 60.7277 1.59826C60.9817 1.66142 61.2193 1.77764 61.4249 1.93924C61.6305 2.10085 61.7994 2.30415 61.9205 2.53574C62.0415 2.76732 62.112 3.02191 62.1272 3.28269C62.23 10.6693 62.23 18.0787 62.1272 25.5109C62.1231 25.7654 62.0673 26.0165 61.9631 26.2488C61.859 26.4812 61.7087 26.69 61.5213 26.8626C61.3339 27.0353 61.1134 27.1682 60.8731 27.2532C60.6327 27.3383 60.3776 27.3738 60.1231 27.3576C58.8727 27.3576 58.5986 26.1607 58.5986 25.0151C58.6158 21.3389 58.5986 17.7481 58.5986 14.1574Z" fill="white"/>
<path d="M105.841 75.8153C104.834 82.8337 102.309 89.5492 98.4415 95.4959C97.8077 96.4363 97.2253 97.9068 95.6665 97.2057C93.4226 96.1114 94.9642 94.7093 95.6665 93.5979C99.3941 88.2213 101.607 81.9441 102.073 75.4221C102.073 73.7122 101.919 70.9422 104.591 71.3184C106.818 71.5749 105.327 74.1055 105.841 75.8153Z" fill="white"/>
<path d="M70.4868 91.7342C70.0928 91.5803 69.2021 91.5119 69.0308 91.1186C68.9272 90.876 68.8748 90.6147 68.877 90.351C68.8792 90.0873 68.936 89.8269 69.0437 89.5861C69.1515 89.3453 69.3079 89.1294 69.5032 88.9517C69.6984 88.7741 69.9283 88.6386 70.1785 88.5538C77.1672 85.4077 81.9462 80.5516 82.8711 72.5837C83.0596 71.0619 84.31 71.3526 85.2864 71.4381C86.2627 71.5235 86.4854 72.1562 86.4683 73.1479C86.4683 79.8164 78.5889 89.7678 71.9256 91.529C71.45 91.6227 70.9697 91.6912 70.4868 91.7342Z" fill="white"/>
<path d="M84.584 96.6754C87.6844 92.623 90.8875 89.5965 92.6004 85.8861C94.3133 82.1757 96.5572 78.0207 95.6323 73.4041C95.3239 71.9336 96.4202 71.0787 97.4479 70.3947C97.6021 70.2921 98.8354 71.3351 99.1609 72.1046C101.679 77.8668 92.4976 94.5038 84.584 96.6754Z" fill="white"/>
<path d="M32.9733 96.3679C25.9332 92.8285 18.2765 78.6195 19.4584 72.4298C19.5738 72.044 19.7756 71.6895 20.0487 71.3933C20.3217 71.097 20.6588 70.8667 21.0343 70.7199C21.4797 70.6002 22.7472 71.5406 22.7472 72.0023C22.7815 81.4579 28.4683 88.588 32.9733 96.3679Z" fill="white"/>
<path d="M34.6007 71.1816C36.5705 80.6714 42.1032 86.9124 52.2437 90.0927C41.9833 93.2389 31.7744 81.6289 34.6007 71.1816Z" fill="white"/>
<path d="M69.322 99.1719C69.1122 98.8973 68.9765 98.5734 68.928 98.2315C68.791 97.2569 68.4998 96.1283 69.8358 95.6154C75.7125 93.5429 80.9321 89.9494 84.9608 85.2023C85.4918 84.5526 86.1941 84.0225 86.845 85.0484C87.2561 85.6982 87.8557 86.536 87.7358 87.1686C87.3589 89.4941 72.7135 99.4455 69.322 99.1719Z" fill="white"/>
<path d="M75.5049 18.3981C75.5049 21.1339 75.5049 23.8868 75.5049 26.6226C75.5049 27.8024 75.5049 29.3926 73.6892 29.2729C71.8735 29.1532 71.805 27.7682 71.7879 26.4858C71.7879 21.2194 71.6851 15.9359 71.7879 10.6695C71.7879 9.14777 72.0962 7.52339 74.1859 7.79697C75.8989 8.03635 75.6077 9.64363 75.6419 10.8063C75.7447 13.3369 75.6419 15.9359 75.6419 18.3981H75.5049Z" fill="white"/>
<path d="M105.79 64.1199C105.55 65.7272 106.424 67.7277 104.282 67.9842C102.861 68.1552 102.176 66.565 102.193 65.3339C102.278 59.452 99.6576 54.3053 97.8591 48.9534C97.4651 47.8078 97.2424 46.8844 98.253 46.3031C99.2637 45.7217 100.103 46.6109 100.6 47.5855C103.232 52.7731 104.986 58.3602 105.79 64.1199Z" fill="white"/>
<path d="M48.7153 19.9197C47.5163 23.0145 50.0514 28.8623 47.0024 28.7426C42.309 28.5374 45.0497 22.9803 44.8613 19.8684C44.6729 16.7564 43.1484 10.8745 46.3858 11.0284C50.9935 11.2677 47.1052 16.9787 48.7153 19.9197Z" fill="white"/>
<path d="M73.0045 74.5498C72.4638 76.6337 71.4325 78.5586 69.9965 80.1645C68.5605 81.7704 66.7613 83.011 64.7483 83.7831C64.4788 83.9516 64.1759 84.0596 63.8604 84.0995C63.545 84.1395 63.2246 84.1105 62.9215 84.0145C62.6184 83.9185 62.3398 83.7579 62.1051 83.5437C61.8704 83.3296 61.6852 83.067 61.5623 82.7743C60.997 81.4748 62.059 80.7909 63.0011 80.4489C64.6643 79.8092 66.1579 78.7966 67.3667 77.4892C68.5755 76.1817 69.4671 74.6145 69.9727 72.9084C70.3667 71.7799 70.7092 70.9078 71.9597 71.1985C73.2101 71.4892 73.3985 72.4809 73.0045 74.5498Z" fill="white"/>
<path d="M57.3483 82.1759C57.1599 84.0739 56.0808 84.091 55.0188 84.0055C51.0106 83.6977 45.495 77.166 45.8718 73.1478C45.8718 72.3442 45.8718 71.438 46.8825 71.1302C47.8931 70.8224 48.4926 71.5234 48.7667 72.3271C50.0513 76.1059 52.0383 79.1665 56.0123 80.6199C56.646 80.8593 57.0229 81.7826 57.3483 82.1759Z" fill="white"/>
<path d="M68.9789 20.5179C68.1225 22.8775 70.2465 27.46 67.4202 27.4771C63.4976 27.4771 65.2619 22.9117 65.1763 20.2956C65.1763 18.0728 63.8231 13.9862 67.1119 14.0888C70.4007 14.1914 68.1396 18.2096 68.9789 20.5179Z" fill="white"/>
<path d="M71.2915 105.584C70.0069 105.686 68.962 105.686 68.8592 104.216C68.7608 103.712 68.8607 103.189 69.1381 102.756C69.4156 102.323 69.8494 102.013 70.3494 101.891C72.8228 100.948 75.2469 99.8806 77.6122 98.6931C78.6057 98.1973 79.582 97.5646 80.1644 98.8641C80.4111 99.3341 80.4723 99.8793 80.336 100.392C80.1996 100.905 79.8756 101.348 79.4279 101.634C76.7043 103.07 73.8952 104.301 71.2915 105.584Z" fill="white"/>
<path d="M106.938 29.9737C106.201 32.4872 104.848 34.0432 102.775 33.7696C102.242 33.7766 101.713 33.6634 101.23 33.4383C100.746 33.2131 100.32 32.882 99.9822 32.4694C99.6446 32.0569 99.4047 31.5736 99.2803 31.0556C99.1559 30.5376 99.1502 29.9983 99.2637 29.4778C99.6406 27.1866 101.148 26.4343 103.392 26.6224C105.636 26.8105 106.201 28.6229 106.938 29.9737Z" fill="white"/>
<path d="M21.2231 30.0592C21.2201 31.0148 20.8513 31.9332 20.1921 32.6262C19.5329 33.3191 18.6332 33.7343 17.6773 33.7867C17.1553 33.8498 16.6257 33.792 16.1295 33.6179C15.6334 33.4439 15.1841 33.1581 14.8164 32.7828C14.4487 32.4075 14.1725 31.9527 14.0092 31.4537C13.8459 30.9547 13.7999 30.4249 13.8747 29.9053C13.8747 27.6825 15.2964 26.5882 17.5746 26.6224C19.8527 26.6566 20.8291 28.0415 21.2231 30.0592Z" fill="white"/>
<path d="M88.6779 83.2701C86.7594 78.7732 90.1339 75.3022 89.6029 71.5405C90.3223 71.4379 90.4422 69.8306 91.5042 70.7026C92.1037 71.2156 93.0458 72.1218 92.9088 72.5664C91.8468 76.0545 92.2579 80.1753 88.6779 83.2701Z" fill="white"/>
<path d="M72.251 82.7058C74.5549 79.1229 76.159 75.1372 76.9786 70.959C80.5072 76.2596 79.1197 79.9187 72.251 82.7058Z" fill="white"/>
<path d="M51.6963 22.5184C52.2273 20.8086 50.8741 17.3889 53.8546 17.6795C56.3383 17.8676 55.5675 21.0993 55.5675 23.0485C55.5675 24.9978 55.7901 27.7335 53.5805 27.6309C50.6343 27.5113 52.2102 24.3651 51.6963 22.5184Z" fill="white"/>
<path d="M7.1086 93.0337C8.73586 93.6492 10.2946 94.5042 10.0548 96.4534C10.0339 96.8674 9.9255 97.2723 9.73679 97.6416C9.54808 98.0109 9.2833 98.3362 8.95981 98.5961C8.63632 98.856 8.26144 99.0448 7.85975 99.1499C7.45806 99.2551 7.03863 99.2743 6.62898 99.2063C5.89757 99.1457 5.21652 98.81 4.72362 98.2672C4.23072 97.7244 3.96277 97.015 3.97397 96.2824C4.01261 95.4534 4.35191 94.6668 4.92864 94.069C5.50537 93.4713 6.28017 93.1033 7.1086 93.0337Z" fill="white"/>
<path d="M42.1895 27.8875C41.8469 29.3922 42.9431 31.8715 40.4765 31.9057C37.8215 31.9057 38.4039 29.3922 38.3697 27.631C38.3354 25.8698 38.284 23.1512 40.5793 23.3221C43.2343 23.5102 41.6756 26.3315 42.1895 27.8875Z" fill="white"/>
<path d="M27.7326 38.5062C27.5956 40.3357 28.0067 43.1057 25.6429 43.1057C22.9022 43.1057 23.93 40.2331 23.93 38.5575C23.93 36.8818 23.1249 34.1289 26.0882 34.3341C28.4178 34.5051 27.5442 36.9331 27.7326 38.5062Z" fill="white"/>
<path d="M40.7336 69.7109C42.0183 73.1307 42.5836 74.9602 43.4058 76.7214C44.108 78.1919 45.6497 79.8846 43.1659 80.7396C40.6822 81.5945 41.1105 78.91 40.3054 77.7473C38.9522 75.6955 39.2776 73.5239 40.7336 69.7109Z" fill="white"/>
<path d="M18.3452 83.2872C17.3346 84.4328 15.8272 84.7919 15.5532 83.1504C14.9536 79.3203 12.8296 75.5415 14.9194 70.7539C17.8656 74.8747 16.1869 79.6965 18.3452 83.3385L17.7285 83.4924L18.3452 83.2872Z" fill="white"/>
<path d="M5.44756 45.2942C3.97445 44.7642 2.67264 43.8237 2.91245 42.1652C2.93797 41.7909 3.03891 41.4257 3.20923 41.0913C3.37954 40.7569 3.61572 40.4603 3.90362 40.2192C4.19151 39.9781 4.5252 39.7975 4.88468 39.6883C5.24416 39.579 5.62205 39.5433 5.99569 39.5833C6.38392 39.5914 6.76572 39.6839 7.11449 39.8543C7.46327 40.0248 7.77064 40.269 8.0152 40.5701C8.25977 40.8712 8.43565 41.2219 8.53061 41.5978C8.62557 41.9736 8.63733 42.3657 8.56505 42.7465C8.54272 43.1237 8.44235 43.4922 8.27029 43.8287C8.09822 44.1653 7.85818 44.4626 7.56529 44.7019C7.27241 44.9413 6.93303 45.1175 6.56855 45.2194C6.20407 45.3214 5.82238 45.3468 5.44756 45.2942Z" fill="white"/>
<path d="M31.9287 32.2306C32.1514 30.5207 31.5519 28.2124 34.0185 28.2808C35.9883 28.2808 35.7314 30.3326 35.6457 31.7005C35.5601 33.0684 35.9198 35.4793 33.5731 35.428C31.5005 35.428 32.2199 33.3249 31.9287 32.2306Z" fill="white"/>
<path d="M81.74 26.6394C81.3631 29.6146 82.0997 31.5639 80.0271 31.769C77.9544 31.9742 77.8517 30.3669 77.7831 28.811C77.7146 27.255 77.9716 24.8783 79.7701 24.6902C81.1404 24.6218 81.74 26.6223 81.74 26.6394Z" fill="white"/>
<path d="M96.0257 38.4544C95.5633 40.4037 96.7623 43.2249 93.936 43.071C92.086 42.9514 92.3944 40.4037 92.4629 38.8135C92.5314 37.2233 91.6749 34.2652 94.1758 34.2139C96.7623 34.1968 95.3234 37.1891 96.0257 38.4544Z" fill="white"/>
<path d="M37.9238 98.625C42.3945 97.0348 43.525 100.557 45.7347 102.712C41.6066 103.977 39.5682 102.096 37.9238 98.625Z" fill="white"/>
<path d="M77.0811 126C74.5631 126.12 74.9228 123.982 74.2377 122.956C73.1414 121.246 74.8715 120.22 76.1561 119.844C76.4667 119.788 76.7856 119.798 77.0921 119.874C77.3985 119.949 77.6856 120.088 77.9345 120.282C78.1835 120.475 78.3887 120.719 78.5368 120.997C78.6849 121.276 78.7726 121.582 78.794 121.896C78.4657 123.353 77.8861 124.741 77.0811 126Z" fill="white"/>
<path d="M115.468 96.5559C114.937 98.1119 114.149 99.3771 112.419 99.0523C111.803 98.9354 111.256 98.5856 110.892 98.0759C110.528 97.5661 110.375 96.9358 110.466 96.3165C110.552 94.9828 111.202 93.9911 112.727 94.0253C113.423 94.0109 114.098 94.2665 114.609 94.7385C115.12 95.2105 115.428 95.862 115.468 96.5559Z" fill="white"/>
<path d="M46.2485 4.88998C44.5356 4.75319 43.5764 4.00085 43.3195 2.75264C43.2168 2.46242 43.1814 2.15271 43.216 1.84686C43.2506 1.54101 43.3542 1.24697 43.5191 0.986887C43.684 0.726805 43.9059 0.507457 44.168 0.345358C44.4301 0.183258 44.7257 0.0826325 45.0324 0.0510563C45.3732 -0.0401979 45.7299 -0.0557907 46.0774 0.00537496C46.425 0.0665406 46.7548 0.202979 47.0438 0.40509C47.3329 0.607201 47.574 0.870076 47.7503 1.17522C47.9266 1.48036 48.0337 1.82036 48.0642 2.17129C48.1499 3.09462 46.8823 4.06924 46.2485 4.88998Z" fill="white"/>
<path d="M35.0639 20.5181C34.7539 20.5768 34.4345 20.5634 34.1305 20.479C33.8265 20.3947 33.546 20.2416 33.3108 20.0316C33.0757 19.8216 32.892 19.5604 32.7742 19.2682C32.6564 18.976 32.6076 18.6607 32.6315 18.3466C32.5809 18.0344 32.5945 17.7152 32.6717 17.4084C32.7489 17.1017 32.8879 16.8139 33.0803 16.5626C33.2727 16.3113 33.5144 16.1019 33.7907 15.947C34.0669 15.7922 34.3719 15.6953 34.687 15.6621C36.2115 15.5082 36.9138 16.5854 36.9995 17.9875C37.0851 19.3896 36.8624 20.5181 35.0639 20.5181Z" fill="white"/>
<path d="M83.7615 16.2433C82.6481 15.6791 81.4148 15.1832 81.6032 13.6614C81.6106 13.3502 81.683 13.0439 81.8157 12.7622C81.9484 12.4804 82.1384 12.2293 82.3738 12.025C82.6091 11.8207 82.8845 11.6676 83.1824 11.5754C83.4803 11.4833 83.7942 11.4542 84.104 11.4899C84.416 11.476 84.7273 11.5315 85.0151 11.6524C85.303 11.7732 85.5604 11.9565 85.7686 12.1889C85.9768 12.4213 86.1306 12.697 86.219 12.996C86.3073 13.295 86.328 13.6099 86.2794 13.9179C86.2098 14.5429 85.9169 15.1219 85.4545 15.549C84.9921 15.976 84.3911 16.2225 83.7615 16.2433Z" fill="white"/>
<path d="M76.4134 1.84666C76.3637 2.4887 76.08 3.09032 75.616 3.53773C75.1521 3.98513 74.5399 4.24731 73.8954 4.27466C73.5838 4.31573 73.267 4.29047 72.9658 4.20056C72.6647 4.11064 72.386 3.95811 72.1482 3.75299C71.9103 3.54786 71.7187 3.2948 71.5858 3.01044C71.453 2.72608 71.382 2.41686 71.3774 2.10313C71.2232 0.427466 72.2681 0 73.6556 0C75.043 0 76.2078 0.290677 76.4134 1.84666Z" fill="white"/>
<path d="M16.8214 60.3753L16.3589 67.4541C13.2072 64.4447 14.4919 61.5551 15.4168 58.6141C16.7872 58.5115 17.3524 59.0074 16.8214 60.3753Z" fill="white"/>
<path d="M16.8207 60.3752L15.4332 58.6653C14.9536 55.9637 16.5295 54.1 19.1845 52.4072L16.8207 60.3752Z" fill="white"/>
<path d="M97.4823 11.8663C97.1226 12.8922 96.643 14.0036 95.4268 13.8497C95.1173 13.8502 94.8109 13.7876 94.5264 13.6659C94.2419 13.5442 93.9852 13.3659 93.772 13.1419C93.5588 12.9179 93.3936 12.6529 93.2864 12.363C93.1792 12.0731 93.1324 11.7645 93.1487 11.4559C93.1965 10.9328 93.4298 10.4438 93.8066 10.0771C94.1834 9.71031 94.679 9.48986 95.2042 9.45538C96.7629 9.33569 97.3282 10.4813 97.4823 11.8663Z" fill="white"/>
<path d="M26.841 11.9689C26.4642 13.3368 25.6249 14.1746 24.1689 13.9181C23.6591 13.8302 23.2007 13.5551 22.8838 13.147C22.5668 12.7388 22.4142 12.2271 22.456 11.7124C22.456 10.3274 23.2611 9.19889 24.717 9.40407C25.3369 9.46898 25.9066 9.77396 26.3037 10.2535C26.7009 10.733 26.8938 11.3489 26.841 11.9689Z" fill="white"/>
<path d="M87.4443 24.8782C87.7184 23.1684 88.4378 22.0741 89.8938 22.3818C90.2006 22.4257 90.4948 22.5329 90.7577 22.6968C91.0205 22.8606 91.2462 23.0774 91.4204 23.3333C91.5945 23.5892 91.7132 23.8785 91.7689 24.1828C91.8246 24.4871 91.816 24.7997 91.7437 25.1005C91.5553 26.3487 90.6989 26.8104 89.6026 26.8104C87.8897 26.9472 87.7869 25.6477 87.4443 24.8782Z" fill="white"/>
<path d="M73.9634 114.219C73.9634 115.535 73.3639 116.117 72.0792 115.928C71.2399 115.792 70.1608 115.501 70.3663 114.543C70.5104 114.061 70.7561 113.614 71.087 113.234C71.4178 112.853 71.8262 112.548 72.2848 112.338C73.6551 111.893 73.8264 113.193 73.9634 114.219Z" fill="white"/>
<path d="M82.2203 110.885C82.0783 111.313 81.783 111.673 81.391 111.897C80.999 112.121 80.5379 112.193 80.0962 112.099C78.7602 111.893 78.469 110.97 78.7773 109.825C78.8014 109.615 78.8748 109.415 78.9915 109.239C79.1081 109.064 79.2648 108.918 79.4486 108.815C79.6324 108.711 79.8382 108.653 80.049 108.644C80.2598 108.635 80.4697 108.677 80.6615 108.764C81.7064 109.141 82.5114 109.79 82.2203 110.885Z" fill="white"/>
<path d="M20.1612 93.0849C18.7341 91.7458 17.881 89.9078 17.7803 87.9553C17.831 87.6201 17.9911 87.3111 18.2358 87.0761C18.4805 86.8412 18.796 86.6934 19.1335 86.6558L21.7371 91.6144C22.0968 93.0336 21.463 93.4439 20.1612 93.0849Z" fill="white"/>
<path d="M20.1611 93.0847L21.737 91.5972C23.1858 92.9588 24.1382 94.7639 24.4434 96.7268C21.4116 96.8636 20.5551 95.1708 20.1611 93.0847Z" fill="white"/>
<path d="M5.13845 85.6127L3.42554 87.6132C2.77464 86.9635 1.86679 86.3992 1.50708 85.6127C1.14737 84.8262 1.78115 84.0738 2.77464 84.0909C3.76813 84.108 4.813 83.7831 5.13845 85.6127Z" fill="white"/>
<path d="M119.116 72.5836C119.989 72.4981 120.829 72.5836 120.983 73.6266C121.154 74.9774 120.298 75.4561 119.116 75.2509C118.294 75.0971 116.855 75.6955 116.923 74.1224C116.975 72.9426 117.951 72.481 119.116 72.5836Z" fill="white"/>
<path d="M9.59266 57.6904C10.5519 58.1179 11.5111 58.6138 11.4083 59.862C11.3056 61.1102 10.2778 61.5547 9.23295 61.3666C8.8316 61.3621 8.44823 61.1998 8.16603 60.9149C7.88382 60.63 7.72556 60.2455 7.72559 59.8449C7.74272 58.5625 8.56491 58.0153 9.59266 57.6904Z" fill="white"/>
<path d="M95.9228 20.313C96.7107 20.5011 97.6357 20.5866 97.6357 21.6638C97.6791 22.0715 97.5595 22.4799 97.3029 22.8001C97.0463 23.1202 96.6734 23.3264 96.2654 23.3736C96.0161 23.4192 95.7598 23.409 95.5149 23.3437C95.2701 23.2785 95.0428 23.1598 94.8494 22.9962C94.6561 22.8326 94.5015 22.6283 94.3968 22.3979C94.2921 22.1675 94.24 21.9167 94.2442 21.6638C94.2099 20.6721 95.0664 20.4156 95.9228 20.313Z" fill="white"/>
<path d="M57.3658 97.7188C57.1088 99.5996 55.9441 99.2748 55.002 99.2919C54.0599 99.309 53.289 98.6934 53.6488 97.8385C54.0085 96.9835 54.8135 96.4193 55.5501 95.7524L57.3658 97.7188Z" fill="white"/>
<path d="M65.0904 97.7188C64.8334 99.5996 63.6687 99.2748 62.7266 99.2919C61.7845 99.309 61.0136 98.6934 61.3734 97.8385C61.7331 96.9836 62.6067 96.4193 63.2747 95.7354L65.0904 97.7188Z" fill="white"/>
<path d="M86.1257 31.6152C87.1877 31.9572 88.1983 32.4873 87.7015 33.7868C87.4275 34.4878 86.6909 35.4111 86.0914 35.4966C84.9437 35.6334 84.2415 34.6246 84.1558 33.5132C84.0702 32.4018 85.0123 31.752 86.1257 31.6152Z" fill="white"/>
<path d="M93.6622 101.48C93.0627 102.404 92.5317 103.584 91.2641 102.985C90.9615 102.75 90.7132 102.453 90.5358 102.114C90.3585 101.774 90.2564 101.401 90.2364 101.019C90.2208 100.807 90.2514 100.594 90.3262 100.395C90.401 100.196 90.5181 100.015 90.6695 99.8655C90.821 99.716 91.0031 99.601 91.2033 99.5285C91.4035 99.456 91.6171 99.4278 91.8294 99.4456C92.3264 99.5141 92.7832 99.7559 93.1186 100.128C93.4541 100.501 93.6467 100.98 93.6622 101.48Z" fill="white"/>
<path d="M47.1563 104.079C47.1563 102.951 47.1562 101.788 48.6807 102.01C49.0701 102.12 49.4282 102.319 49.7259 102.592C50.0235 102.866 50.2523 103.205 50.3936 103.584C50.5821 104.627 49.6057 105.396 48.6807 105.584C47.7558 105.772 47.1734 105.054 47.1563 104.079Z" fill="white"/>
<path d="M57.3656 103.737C57.3656 105.157 56.9887 105.772 55.9438 105.755C54.899 105.738 54.2309 105.755 53.9055 104.763C53.5629 103.378 54.6249 102.78 55.6184 102.712C56.2693 102.677 56.9373 103.464 57.3656 103.737Z" fill="white"/>
<path d="M64.9366 103.874C64.9366 105.686 63.9431 105.721 62.8811 105.584C61.8191 105.447 61.0141 105.413 61.3053 104.37C61.7334 103.479 62.3129 102.669 63.0182 101.976L64.9366 103.874Z" fill="white"/>
<path d="M32.0659 104.387C33.1108 104.712 33.8816 105.482 33.6589 106.507C33.5262 106.885 33.2994 107.223 32.9997 107.49C32.7 107.756 32.3374 107.941 31.946 108.029C30.5757 108.132 30.5243 106.918 30.5072 105.875C30.49 104.832 31.1238 104.456 32.0659 104.387Z" fill="white"/>
<path d="M87.085 104.438C87.551 104.437 87.9999 104.614 88.3403 104.931C88.6808 105.249 88.8873 105.684 88.9178 106.148C88.9178 106.713 87.9757 107.619 87.2049 107.858C85.7831 108.371 85.4063 107.157 85.3207 106.148C85.235 105.14 85.5433 104.473 87.085 104.438Z" fill="white"/>
<path d="M38.918 112.286C37.6847 112.286 36.8111 111.773 36.9824 110.577C37.0716 110.204 37.2444 109.857 37.4877 109.56C37.731 109.264 38.0385 109.027 38.387 108.867C39.5518 108.627 40.3054 109.653 40.4253 110.679C40.404 111.081 40.2411 111.463 39.9653 111.757C39.6895 112.051 39.3186 112.239 38.918 112.286Z" fill="white"/>
<path d="M24.3916 20.3472C25.248 20.484 26.1045 20.8088 26.1045 21.8177C26.1045 22.8265 25.5221 23.9379 24.3402 23.9379C24.1318 23.9401 23.925 23.9011 23.7319 23.8231C23.5387 23.745 23.3629 23.6295 23.2148 23.4832C23.0666 23.3369 22.949 23.1628 22.8687 22.9708C22.7885 22.7788 22.7472 22.5728 22.7472 22.3648C22.6101 21.185 23.0898 20.4156 24.3916 20.3472Z" fill="white"/>
<path d="M116.324 67.1461C117.54 64.7352 118.962 64.4616 120.606 65.4362C120.768 65.6678 120.87 65.9357 120.903 66.2162C120.936 66.4967 120.899 66.7809 120.795 67.0435C119.425 68.6166 117.883 67.7958 116.324 67.1461Z" fill="white"/>
<path d="M44.6554 122.067C44.3984 123.965 43.405 124.033 42.3087 123.965C42.0919 123.975 41.8758 123.935 41.6768 123.848C41.4778 123.762 41.3013 123.631 41.1607 123.466C41.0202 123.301 40.9194 123.106 40.866 122.896C40.8126 122.686 40.808 122.467 40.8527 122.255C40.8792 121.753 41.0989 121.281 41.466 120.937C41.833 120.592 42.319 120.403 42.8226 120.408C43.679 120.477 44.8438 121.161 44.6554 122.067Z" fill="white"/>
<path d="M1.59298 76.1572C0.068493 76.3452 -0.0171525 75.3706 0.0171057 74.6183C0.0513639 73.8659 0.256913 72.6861 0.736528 72.4638C0.934892 72.4054 1.14347 72.3897 1.34836 72.418C1.55325 72.4462 1.74975 72.5178 1.92479 72.6278C2.09982 72.7378 2.24937 72.8838 2.36346 73.056C2.47755 73.2282 2.55358 73.4227 2.58647 73.6266C2.70767 74.0991 2.67695 74.5977 2.49866 75.0518C2.32037 75.506 2.00354 75.8927 1.59298 76.1572Z" fill="white"/>
<path d="M3.42603 53.1426C3.85426 53.4846 4.81349 53.8949 4.86487 54.3908C4.98478 55.5706 4.04268 56.1006 2.91216 56.0151C2.71209 56.0178 2.51362 55.9794 2.32912 55.9021C2.14463 55.8248 1.97807 55.7104 1.83984 55.566C1.70161 55.4216 1.59469 55.2503 1.52573 55.0628C1.45677 54.8753 1.42726 54.6757 1.43905 54.4763C1.47331 53.3991 2.41541 53.4675 3.42603 53.1426Z" fill="white"/>
<path d="M0.976552 68.702C-0.273873 68.1719 0.000192683 66.9921 0.0858382 66.1201C0.171484 65.248 1.0622 64.6838 1.79875 65.1797C2.5353 65.6755 2.48391 66.5304 2.55243 67.2657C2.62095 68.0009 1.90152 68.6507 0.976552 68.702Z" fill="white"/>
<path d="M57.314 110.491C57.3288 110.699 57.2993 110.907 57.2276 111.102C57.1558 111.298 57.0434 111.475 56.8977 111.624C56.752 111.773 56.5763 111.889 56.3824 111.965C56.1884 112.041 55.9805 112.075 55.7724 112.064C55.3631 112.099 54.9564 111.974 54.6372 111.715C54.318 111.457 54.1111 111.086 54.0595 110.679C53.8197 109.448 54.8988 109.294 55.6011 109.209C55.7984 109.178 55.9999 109.186 56.1938 109.234C56.3877 109.282 56.5699 109.368 56.7297 109.488C56.8895 109.608 57.0236 109.758 57.1239 109.93C57.2243 110.103 57.289 110.294 57.314 110.491Z" fill="white"/>
<path d="M63.1893 112.082C62.093 112.082 61.3051 111.876 61.2194 110.885C61.1166 109.534 62.2472 109.175 63.2064 109.175C63.5811 109.236 63.9345 109.39 64.2338 109.623C64.5332 109.856 64.7689 110.161 64.9193 110.508C65.0906 111.928 64.08 112.184 63.1893 112.082Z" fill="white"/>
<path d="M57.3655 116.134C57.3655 117.382 57.0058 118.083 56.098 118.288C55.1901 118.494 54.6591 117.741 54.642 116.921C54.6249 116.1 54.4022 114.698 55.9267 114.886C56.5262 114.971 57.0229 115.809 57.3655 116.134Z" fill="white"/>
<path d="M65.0903 116.784C65.0903 118.015 64.5593 118.648 63.6172 118.391C62.6751 118.135 61.9043 117.519 61.9043 116.938C61.9557 116.567 62.1006 116.216 62.3253 115.917C62.55 115.618 62.8472 115.381 63.189 115.228C64.3709 114.8 64.7135 115.98 65.0903 116.784Z" fill="white"/>
<path d="M85.1151 118.391C85.1618 118.585 85.1616 118.788 85.1146 118.982C85.0677 119.177 84.9752 119.357 84.8448 119.509C84.7144 119.661 84.5499 119.78 84.3646 119.856C84.1794 119.932 83.9787 119.963 83.779 119.947C83.4278 119.918 83.0887 119.805 82.7905 119.617C82.4924 119.43 82.2439 119.173 82.0661 118.869C82.021 118.671 82.0197 118.465 82.0622 118.267C82.1046 118.068 82.19 117.881 82.3122 117.718C82.4344 117.555 82.5906 117.421 82.7699 117.325C82.9493 117.228 83.1475 117.172 83.3508 117.16C83.747 117.099 84.1514 117.193 84.48 117.422C84.8086 117.652 85.036 117.998 85.1151 118.391Z" fill="white"/>
<path d="M57.3137 90.5027C57.3137 92.5033 56.817 92.9991 55.8064 92.8965C55.6032 92.8971 55.4032 92.8468 55.2245 92.7503C55.0458 92.6538 54.8941 92.5142 54.7834 92.3441C54.6727 92.1741 54.6064 91.9791 54.5906 91.7769C54.5748 91.5747 54.61 91.3718 54.693 91.1867C54.8472 90.6566 54.299 89.2887 55.755 89.7504C56.303 89.9376 56.8264 90.1902 57.3137 90.5027Z" fill="white"/>
<path d="M63.2753 88.998C63.509 89.824 63.692 90.6634 63.8234 91.5116C63.8589 91.7122 63.8432 91.9184 63.7779 92.1114C63.7125 92.3044 63.5995 92.4778 63.4494 92.6158C63.2993 92.7537 63.1167 92.8518 62.9187 92.9008C62.7206 92.9499 62.5134 92.9484 62.3161 92.8965C61.3054 92.7769 60.9115 92.0587 61.374 91.1867C61.9343 90.3967 62.5711 89.6636 63.2753 88.998Z" fill="white"/>
<path d="M19.1337 86.6384L17.7805 87.9379C15.451 86.0913 18.3972 84.8773 18.3458 83.3042L19.1337 86.6384Z" fill="white"/>
</svg>
